<svg width="17" height="30" viewBox="0 0 17 30" fill="none" xmlns="http://www.w3.org/2000/svg">
<path d="M7.32955 29.4091V0.31818H8.81818V29.4091H7.32955ZM13.7273 9.04545C13.5985 7.75 13.0265 6.7197 12.0114 5.95454C10.9962 5.18939 9.7197 4.80682 8.18182 4.80682C7.09848 4.80682 6.14394 4.99242 5.31818 5.36364C4.5 5.73485 3.85606 6.25 3.38636 6.90909C2.92424 7.56061 2.69318 8.30303 2.69318 9.13636C2.69318 9.75 2.82576 10.2879 3.09091 10.75C3.35606 11.2121 3.71212 11.6098 4.15909 11.9432C4.61364 12.2689 5.11364 12.5492 5.65909 12.7841C6.21212 13.0189 6.76894 13.2159 7.32955 13.375L9.78409 14.0795C10.5265 14.2841 11.2689 14.5455 12.0114 14.8636C12.7538 15.1818 13.4318 15.5833 14.0455 16.0682C14.6667 16.5455 15.1629 17.1326 15.5341 17.8295C15.9129 18.5189 16.1023 19.3485 16.1023 20.3182C16.1023 21.5606 15.7803 22.678 15.1364 23.6705C14.4924 24.6629 13.5682 25.4508 12.3636 26.0341C11.1591 26.6098 9.71591 26.8977 8.03409 26.8977C6.45076 26.8977 5.07576 26.6364 3.90909 26.1136C2.74242 25.5833 1.82576 24.8523 1.15909 23.9205C0.492424 22.9886 0.117424 21.9091 0.034091 20.6818H2.21591C2.29167 21.5985 2.5947 22.375 3.125 23.0114C3.6553 23.6477 4.3447 24.1326 5.19318 24.4659C6.04167 24.7917 6.98864 24.9545 8.03409 24.9545C9.19318 24.9545 10.2235 24.7614 11.125 24.375C12.0341 23.9811 12.7462 23.4356 13.2614 22.7386C13.7841 22.0341 14.0455 21.2159 14.0455 20.2841C14.0455 19.4962 13.8409 18.8371 13.4318 18.3068C13.0227 17.7689 12.4508 17.3182 11.7159 16.9545C10.9886 16.5909 10.1439 16.2689 9.18182 15.9886L6.39773 15.1705C4.57197 14.625 3.1553 13.8712 2.14773 12.9091C1.14015 11.947 0.636364 10.7197 0.636364 9.22727C0.636364 7.97727 0.969697 6.87879 1.63636 5.93182C2.31061 4.97727 3.2197 4.23485 4.36364 3.70454C5.51515 3.16667 6.80682 2.89773 8.23864 2.89773C9.68561 2.89773 10.9659 3.16288 12.0795 3.69318C13.1932 4.22348 14.0758 4.95454 14.7273 5.88636C15.3864 6.8106 15.7386 7.86364 15.7841 9.04545H13.7273Z" fill="#2A45C7"/>
</svg>
