<svg width="80" height="80" viewBox="0 0 80 80" fill="none" xmlns="http://www.w3.org/2000/svg">
<path d="M72 40C72 57.6731 57.6731 72 40 72C22.3269 72 8 57.6731 8 40C8 22.3269 22.3269 8 40 8C57.6731 8 72 22.3269 72 40ZM11.4191 40C11.4191 55.7848 24.2152 68.5809 40 68.5809C55.7848 68.5809 68.5809 55.7848 68.5809 40C68.5809 24.2152 55.7848 11.4191 40 11.4191C24.2152 11.4191 11.4191 24.2152 11.4191 40Z" fill="#28282E"/>
<path d="M33 51C33.5523 51 34 50.5523 34 50C34 49.4477 33.5523 49 33 49C32.4477 49 32 49.4477 32 50C32 50.5523 32.4477 51 33 51Z" fill="#28282E"/>
<path d="M28 48V52C28 53.1 28.9 54 30 54H42V52H30V48H42V46H30C28.9 46 28 46.9 28 48ZM28 37V42C28 43.1 28.9 44 30 44H38V42H30V37H28Z" fill="#28282E"/>
<path d="M33 41C33.5523 41 34 40.5523 34 40C34 39.4477 33.5523 39 33 39C32.4477 39 32 39.4477 32 40C32 40.5523 32.4477 41 33 41Z" fill="#28282E"/>
<path d="M52 43V38C52 36.9 51.1 36 50 36H42V38H50V43H52ZM52 32V28C52 26.9 51.1 26 50 26H38V28H50V32H38V34H50C51.1 34 52 33.1 52 32Z" fill="#28282E"/>
<path d="M47.41 46L34 32.59V26H26V34H32.59L46 47.41V54H54V46H47.41ZM32 32H28V28H32V32ZM52 52H48V48H52V52Z" fill="#28282E"/>
</svg>
