<svg width="80" height="80" viewBox="0 0 80 80" fill="none" xmlns="http://www.w3.org/2000/svg">
<path d="M72 40C72 57.6731 57.6731 72 40 72C22.3269 72 8 57.6731 8 40C8 22.3269 22.3269 8 40 8C57.6731 8 72 22.3269 72 40ZM11.4191 40C11.4191 55.7848 24.2152 68.5809 40 68.5809C55.7848 68.5809 68.5809 55.7848 68.5809 40C68.5809 24.2152 55.7848 11.4191 40 11.4191C24.2152 11.4191 11.4191 24.2152 11.4191 40Z" fill="#28282E"/>
<g clip-path="url(#clip0_75_4331)">
<path d="M47.6267 52.4445H31.6267C31.3909 52.4445 31.1648 52.5381 30.9981 52.7048C30.8314 52.8715 30.7378 53.0976 30.7378 53.3333C30.7378 53.5691 30.8314 53.7952 30.9981 53.9619C31.1648 54.1286 31.3909 54.2222 31.6267 54.2222H47.6267C47.8624 54.2222 48.0885 54.1286 48.2552 53.9619C48.4219 53.7952 48.5156 53.5691 48.5156 53.3333C48.5156 53.0976 48.4219 52.8715 48.2552 52.7048C48.0885 52.5381 47.8624 52.4445 47.6267 52.4445Z" fill="#28282E"/>
<path d="M39.7779 25.7778C36.4775 25.7778 33.3122 27.0889 30.9784 29.4227C28.6446 31.7565 27.3335 34.9217 27.3335 38.2222C27.3335 38.6222 27.3335 39.0133 27.3957 39.4044C27.6248 41.8047 28.5462 44.0867 30.0479 45.973C31.5496 47.8594 33.567 49.2689 35.8548 50.0301C38.1426 50.7914 40.6023 50.8716 42.9349 50.2611C45.2675 49.6506 47.3724 48.3756 48.9939 46.5912C50.6154 44.8067 51.6836 42.5896 52.0686 40.2094C52.4537 37.8292 52.1389 35.3884 51.1627 33.1838C50.1865 30.9791 48.5909 29.1055 46.5697 27.7907C44.5486 26.4759 42.1891 25.7766 39.7779 25.7778ZM39.7779 27.5556C42.5886 27.558 45.2846 28.6696 47.2802 30.6489V31.5378C43.7669 30.3287 39.9478 30.3444 36.4446 31.5822C36.1647 31.3095 35.8134 31.1215 35.4313 31.04H35.2091C35.1024 30.6667 35.0046 30.2933 34.9246 29.9111C34.8446 29.5289 34.8002 29.1911 34.7557 28.8267C36.2988 27.9939 38.0245 27.5572 39.7779 27.5556ZM37.1113 32.7733C40.3394 31.6923 43.838 31.733 47.0402 32.8889C46.607 35.1472 45.6613 37.2759 44.2757 39.1111C43.8882 38.947 43.4591 38.9076 43.0482 38.9984C42.6372 39.0892 42.2647 39.3056 41.9824 39.6178C41.6713 39.44 41.3602 39.2622 41.0935 39.0578C39.2991 37.8605 37.8006 36.2708 36.7113 34.4089C36.8873 34.1906 37.0155 33.9377 37.0875 33.6666C37.1594 33.3956 37.1736 33.1124 37.1291 32.8355L37.1113 32.7733ZM33.5557 29.5733C33.5557 29.76 33.6091 29.9555 33.6446 30.1422C33.7246 30.5333 33.8313 30.9155 33.9379 31.2978C33.5976 31.4993 33.3236 31.7961 33.1499 32.1515C32.9761 32.5069 32.9102 32.9054 32.9602 33.2978C31.5571 34.214 30.3038 35.3414 29.2446 36.64C29.4571 35.2336 29.9488 33.8838 30.6907 32.6702C31.4326 31.4566 32.4097 30.4037 33.5646 29.5733H33.5557ZM33.5557 43.5378C33.2087 43.6543 32.8986 43.8602 32.6567 44.1349C32.4148 44.4096 32.2496 44.7433 32.1779 45.1022H31.6091C30.1736 43.3901 29.315 41.2686 29.1557 39.04L29.2535 38.8711C30.3666 37.1452 31.8217 35.6658 33.5291 34.5244C33.785 34.7918 34.1085 34.985 34.4653 35.0835C34.822 35.1821 35.1988 35.1824 35.5557 35.0844C36.7447 37.0936 38.3699 38.81 40.3113 40.1067C40.6757 40.3467 41.0491 40.5689 41.4224 40.7822C41.3925 41.1222 41.4475 41.4643 41.5824 41.7778C39.9557 43.0695 38.0793 44.0107 36.0713 44.5422C35.8384 44.1071 35.4584 43.769 34.9992 43.5883C34.5401 43.4075 34.0316 43.3959 33.5646 43.5555L33.5557 43.5378ZM39.7779 48.8711C37.9701 48.8716 36.1923 48.4095 34.6135 47.5289L34.8624 47.4755C35.2161 47.3595 35.5322 47.1506 35.7777 46.8708C36.0231 46.5909 36.189 46.2503 36.2579 45.8844C38.5308 45.3048 40.6527 44.2439 42.4802 42.7733C42.9142 43.027 43.4268 43.1111 43.9192 43.0093C44.4116 42.9076 44.8489 42.6272 45.1468 42.2222C46.4009 42.5483 47.691 42.7155 48.9868 42.72H49.4579C48.6004 44.5641 47.2335 46.1246 45.5185 47.2175C43.8034 48.3105 41.8117 48.8904 39.7779 48.8889V48.8711ZM45.5646 40.96C45.5637 40.5874 45.4624 40.222 45.2713 39.9022C46.7506 37.9699 47.78 35.7318 48.2846 33.3511C48.729 33.5585 49.1676 33.7896 49.6002 34.0444C50.5778 36.3546 50.71 38.9354 49.9735 41.3333C48.4977 41.4474 47.0132 41.3305 45.5735 40.9867L45.5646 40.96Z" fill="#28282E"/>
</g>
<defs>
<clipPath id="clip0_75_4331">
<rect width="32" height="32" fill="white" transform="translate(24 24)"/>
</clipPath>
</defs>
</svg>
