<svg width="80" height="80" viewBox="0 0 80 80" fill="none" xmlns="http://www.w3.org/2000/svg">
<path d="M72 40C72 57.6731 57.6731 72 40 72C22.3269 72 8 57.6731 8 40C8 22.3269 22.3269 8 40 8C57.6731 8 72 22.3269 72 40ZM11.4191 40C11.4191 55.7848 24.2152 68.5809 40 68.5809C55.7848 68.5809 68.5809 55.7848 68.5809 40C68.5809 24.2152 55.7848 11.4191 40 11.4191C24.2152 11.4191 11.4191 24.2152 11.4191 40Z" fill="#28282E"/>
<path d="M31.4332 26.7653C31.6029 26.8469 31.7462 26.9749 31.8464 27.1343C31.9467 27.2938 31.9999 27.4783 31.9998 27.6667C31.9998 28.7733 32.4158 29.4107 32.9372 30.1867L32.9758 30.2427C33.4185 30.9013 33.9998 31.764 33.9998 33C33.9998 34.2613 33.3638 35.3733 32.3945 36.0333C32.6492 36.2467 32.8745 36.5093 33.0692 36.824C33.7038 37.8507 33.9998 39.42 33.9998 41.6733C33.9998 43.956 33.6932 46.6973 33.1932 48.8867C32.9452 49.9747 32.6372 50.9787 32.2705 51.732C32.0974 52.1068 31.8681 52.453 31.5905 52.7587C31.3158 53.04 30.8932 53.34 30.3332 53.34C29.7732 53.34 29.3505 53.04 29.0772 52.7587C28.7988 52.4537 28.5694 52.1073 28.3972 51.732C28.0292 50.9773 27.7212 49.9747 27.4732 48.8853C26.9531 46.5157 26.6827 44.098 26.6665 41.672C26.6665 39.4187 26.9625 37.8507 27.5972 36.824C27.7782 36.526 28.006 36.259 28.2718 36.0333C27.7769 35.6973 27.3718 35.2451 27.0919 34.7163C26.8121 34.1875 26.666 33.5983 26.6665 33C26.6665 32.5093 26.6665 31.6653 27.1772 30.576C27.6772 29.5093 28.6278 28.284 30.3745 26.8853C30.5217 26.7676 30.6992 26.6938 30.8865 26.6726C31.0738 26.6514 31.2633 26.6835 31.4332 26.7653ZM28.6665 32.9987C28.6665 33.4407 28.8421 33.8659 29.1547 34.1785C29.4672 34.4911 29.8911 34.6667 30.3332 34.6667C30.7752 34.6667 31.1991 34.4911 31.5117 34.1785C31.8242 33.8659 31.9998 33.442 31.9998 33C31.9998 32.4147 31.7532 32.0093 31.2772 31.3013L31.2612 31.2773C30.9558 30.824 30.5945 30.2867 30.3385 29.5973C29.6145 30.3333 29.2145 30.944 28.9892 31.424C28.6665 32.112 28.6665 32.6027 28.6665 32.9987ZM29.2985 37.8747C28.9678 38.4107 28.6665 39.5093 28.6665 41.6733C28.6665 43.808 28.9572 46.4 29.4225 48.4413C29.6572 49.468 29.9238 50.3013 30.1945 50.856C30.2438 50.9587 30.2905 51.044 30.3332 51.116C30.3758 51.044 30.4225 50.9587 30.4718 50.856C30.7425 50.3013 31.0092 49.4667 31.2438 48.4413C31.7105 46.4013 31.9998 43.8093 31.9998 41.6733C31.9998 39.5093 31.6985 38.4107 31.3678 37.8747C31.2681 37.6942 31.1174 37.5472 30.9345 37.452C30.7452 37.3695 30.5395 37.3312 30.3332 37.34C30.0665 37.34 29.8758 37.3813 29.7318 37.452C29.549 37.5472 29.3982 37.6942 29.2985 37.8747ZM37.3332 43.8907C36.6268 43.7722 35.9397 43.5587 35.2905 43.256C35.3295 42.4998 35.3406 41.7424 35.3238 40.9853C35.9252 41.3893 36.6038 41.6867 37.3332 41.852V38C37.3332 37.4696 37.5439 36.9609 37.919 36.5858C38.294 36.2107 38.8027 36 39.3332 36H44.6665C44.6664 34.8809 44.3534 33.7842 43.7628 32.8336C43.1722 31.8831 42.3275 31.1167 41.3242 30.621C40.3209 30.1253 39.1989 29.9201 38.0851 30.0286C36.9713 30.137 35.91 30.5548 35.0212 31.2347C34.7545 30.4973 34.3745 29.9333 34.1105 29.5413L34.0572 29.4613C35.2551 28.6169 36.662 28.1177 38.1243 28.0184C39.5866 27.919 41.0481 28.2233 42.3493 28.8981C43.6504 29.5728 44.7412 30.592 45.5025 31.8444C46.2639 33.0968 46.6665 34.5343 46.6665 36H51.3332C51.8636 36 52.3723 36.2107 52.7474 36.5858C53.1225 36.9609 53.3332 37.4696 53.3332 38V50C53.3332 50.5304 53.1225 51.0391 52.7474 51.4142C52.3723 51.7893 51.8636 52 51.3332 52H39.3332C38.8027 52 38.294 51.7893 37.919 51.4142C37.5439 51.0391 37.3332 50.5304 37.3332 50V43.8893V43.8907ZM39.3332 43.9747V50.0013H51.3332V38.0013H46.4132C45.9978 39.608 45.0933 41.0459 43.8249 42.116C42.5565 43.1862 40.9869 43.8357 39.3332 43.9747ZM44.3252 38.0013H39.3332V41.9653C40.4534 41.8397 41.5157 41.4013 42.3985 40.7003C43.2813 39.9993 43.949 39.064 44.3252 38.0013Z" fill="#28282E"/>
</svg>
