<svg width="80" height="80" viewBox="0 0 80 80" fill="none" xmlns="http://www.w3.org/2000/svg">
<path d="M72 40C72 57.6731 57.6731 72 40 72C22.3269 72 8 57.6731 8 40C8 22.3269 22.3269 8 40 8C57.6731 8 72 22.3269 72 40ZM11.4191 40C11.4191 55.7848 24.2152 68.5809 40 68.5809C55.7848 68.5809 68.5809 55.7848 68.5809 40C68.5809 24.2152 55.7848 11.4191 40 11.4191C24.2152 11.4191 11.4191 24.2152 11.4191 40Z" fill="#28282E"/>
<g clip-path="url(#clip0_75_4350)">
<path d="M31 32C31.5523 32 32 31.5523 32 31C32 30.4477 31.5523 30 31 30C30.4477 30 30 30.4477 30 31C30 31.5523 30.4477 32 31 32Z" fill="#28282E"/>
<path d="M31 40C31.5523 40 32 39.5523 32 39C32 38.4477 31.5523 38 31 38C30.4477 38 30 38.4477 30 39C30 39.5523 30.4477 40 31 40Z" fill="#28282E"/>
<path d="M31 48C31.5523 48 32 47.5523 32 47C32 46.4477 31.5523 46 31 46C30.4477 46 30 46.4477 30 47C30 47.5523 30.4477 48 31 48Z" fill="#28282E"/>
<path d="M42 63H30V54H42V51H30V42H57V30C57 29.2044 56.6839 28.4413 56.1213 27.8787C55.5587 27.3161 54.7956 27 54 27H30C29.2044 27 28.4413 27.3161 27.8787 27.8787C27.3161 28.4413 27 29.2044 27 30V63C27 63.7957 27.3161 64.5587 27.8787 65.1213C28.4413 65.6839 29.2044 66 30 66H42V63ZM30 30H54V39H30V30Z" fill="#28282E"/>
<path d="M55.0001 42.992V45.405C54.372 44.3548 53.4794 43.4878 52.4115 42.8904C51.3436 42.293 50.1377 41.9862 48.9141 42.0005C47.6905 42.0148 46.4921 42.3498 45.4385 42.9721C44.3848 43.5943 43.5128 44.482 42.9095 45.5466C42.3062 46.6112 41.9926 47.8154 42.0001 49.039C42.0077 50.2626 42.336 51.4629 42.9523 52.52C43.5687 53.577 44.4516 54.454 45.5128 55.0632C46.574 55.6725 47.7764 55.9927 49.0001 55.992V53.992C48.0983 53.9932 47.2131 53.7505 46.438 53.2896C45.663 52.8288 45.027 52.1669 44.5974 51.374C44.1678 50.5812 43.9606 49.687 43.9977 48.786C44.0349 47.8851 44.315 47.0109 44.8084 46.2561C45.3018 45.5014 45.9901 44.8941 46.8005 44.4986C47.6108 44.1031 48.5131 43.9341 49.4117 44.0095C50.3102 44.0849 51.1717 44.4019 51.9048 44.927C52.6379 45.452 53.2154 46.1656 53.5761 46.992H51.0001V48.992H57.0001V42.992H55.0001Z" fill="#28282E"/>
</g>
<defs>
<clipPath id="clip0_75_4350">
<rect width="32" height="32" fill="white" transform="translate(24 24)"/>
</clipPath>
</defs>
</svg>
