<svg width="80" height="80" viewBox="0 0 80 80" fill="none" xmlns="http://www.w3.org/2000/svg">
<path d="M72 40C72 57.6731 57.6731 72 40 72C22.3269 72 8 57.6731 8 40C8 22.3269 22.3269 8 40 8C57.6731 8 72 22.3269 72 40ZM11.4191 40C11.4191 55.7848 24.2152 68.5809 40 68.5809C55.7848 68.5809 68.5809 55.7848 68.5809 40C68.5809 24.2152 55.7848 11.4191 40 11.4191C24.2152 11.4191 11.4191 24.2152 11.4191 40Z" fill="#28282E"/>
<path d="M33.3333 29.3333C30.4 29.3333 28 31.7333 28 34.6666C28 37.6 30.4 40 33.3333 40C36.2667 40 38.6667 37.6 38.6667 34.6666C38.6667 31.7333 36.2667 29.3333 33.3333 29.3333ZM33.3333 37.3333C31.8667 37.3333 30.6667 36.1333 30.6667 34.6666C30.6667 33.2 31.8667 32 33.3333 32C34.8 32 36 33.2 36 34.6666C36 36.1333 34.8 37.3333 33.3333 37.3333ZM24 48C24 45.0666 28.1333 42.6666 33.3333 42.6666C35.3333 42.6666 37.2 43.0666 38.6667 43.6V46.6666C37.6 46 35.7333 45.3333 33.3333 45.3333C29.0667 45.3333 26.6667 47.2 26.6667 48H38.6667V50.6666H24V48ZM53.3333 29.3333H44C42.5333 29.3333 41.3333 30.5333 41.3333 32V48C41.3333 49.4666 42.5333 50.6666 44 50.6666H53.3333C54.8 50.6666 56 49.4666 56 48V32C56 30.5333 54.8 29.3333 53.3333 29.3333ZM53.3333 48H44V32H53.3333V48Z" fill="#28282E"/>
</svg>
