<svg width="80" height="80" viewBox="0 0 80 80" fill="none" xmlns="http://www.w3.org/2000/svg">
<path d="M72 40C72 57.6731 57.6731 72 40 72C22.3269 72 8 57.6731 8 40C8 22.3269 22.3269 8 40 8C57.6731 8 72 22.3269 72 40ZM11.4191 40C11.4191 55.7848 24.2152 68.5809 40 68.5809C55.7848 68.5809 68.5809 55.7848 68.5809 40C68.5809 24.2152 55.7848 11.4191 40 11.4191C24.2152 11.4191 11.4191 24.2152 11.4191 40Z" fill="#28282E"/>
<g clip-path="url(#clip0_75_4302)">
<path d="M50.6664 32.1961C50.381 32.1294 50.0915 32.0818 49.7997 32.0534C49.3987 30.0217 48.3761 28.1649 46.8734 26.7399C45.3708 25.3148 43.4624 24.3921 41.4123 24.0992C39.3622 23.8063 37.2717 24.1578 35.4302 25.1051C33.5886 26.0524 32.087 27.5486 31.1331 29.3868C30.5181 29.4599 29.9139 29.6054 29.3331 29.8201C27.7744 30.3672 26.4241 31.385 25.4688 32.7327C24.5136 34.0804 24.0005 35.6915 24.0005 37.3434C24.0005 38.9954 24.5136 40.6065 25.4688 41.9542C26.4241 43.3019 27.7744 44.3197 29.3331 44.8668V41.9281C28.5227 41.4641 27.8492 40.7943 27.3808 39.9864C26.9124 39.1785 26.6658 38.2613 26.6658 37.3274C26.6658 36.3936 26.9124 35.4763 27.3808 34.6685C27.8492 33.8606 28.5227 33.1908 29.3331 32.7268C29.9703 32.3539 30.6791 32.1199 31.4131 32.0401L32.8397 31.8934L33.5064 30.6268C34.203 29.2772 35.3024 28.1779 36.652 27.4814C38.0016 26.7848 39.5345 26.5255 41.0381 26.7395C42.5417 26.9535 43.9414 27.6301 45.0431 28.6754C46.1448 29.7208 46.8939 31.0831 47.1864 32.5734L47.5864 34.5734L49.6264 34.7201C49.9819 34.748 50.3319 34.8247 50.6664 34.9481C51.4445 35.2156 52.1197 35.7195 52.5977 36.3892C53.0756 37.059 53.3325 37.8613 53.3325 38.6841C53.3325 39.5069 53.0756 40.3092 52.5977 40.979C52.1197 41.6488 51.4445 42.1526 50.6664 42.4201V45.1988C52.17 44.8989 53.5232 44.0872 54.4955 42.9018C55.4679 41.7164 55.9993 40.2306 55.9993 38.6974C55.9993 37.1643 55.4679 35.6785 54.4955 34.4931C53.5232 33.3077 52.17 32.4959 50.6664 32.1961Z" fill="#28282E"/>
<path d="M32 37.3334V44H48V37.3334H32ZM41.3333 41.3334H33.3333V40H41.3333V41.3334ZM43.3333 41.3334C43.2015 41.3334 43.0726 41.2943 42.963 41.221C42.8533 41.1478 42.7679 41.0436 42.7174 40.9218C42.667 40.8 42.6538 40.666 42.6795 40.5366C42.7052 40.4073 42.7687 40.2885 42.8619 40.1953C42.9552 40.1021 43.074 40.0386 43.2033 40.0129C43.3326 39.9871 43.4666 40.0003 43.5885 40.0508C43.7103 40.1012 43.8144 40.1867 43.8876 40.2963C43.9609 40.406 44 40.5349 44 40.6667C44 40.8435 43.9298 41.0131 43.8047 41.1381C43.6797 41.2631 43.5101 41.3334 43.3333 41.3334ZM46 41.3334C45.8681 41.3334 45.7393 41.2943 45.6296 41.221C45.52 41.1478 45.4345 41.0436 45.3841 40.9218C45.3336 40.8 45.3204 40.666 45.3461 40.5366C45.3719 40.4073 45.4354 40.2885 45.5286 40.1953C45.6218 40.1021 45.7406 40.0386 45.8699 40.0129C45.9993 39.9871 46.1333 40.0003 46.2551 40.0508C46.3769 40.1012 46.4811 40.1867 46.5543 40.2963C46.6276 40.406 46.6667 40.5349 46.6667 40.6667C46.6667 40.8435 46.5964 41.0131 46.4714 41.1381C46.3464 41.2631 46.1768 41.3334 46 41.3334ZM32 46.6667V53.3334H48V46.6667H32ZM41.3333 50.6667H33.3333V49.3334H41.3333V50.6667ZM43.3333 50.6667C43.2015 50.6667 43.0726 50.6276 42.963 50.5544C42.8533 50.4811 42.7679 50.377 42.7174 50.2552C42.667 50.1333 42.6538 49.9993 42.6795 49.87C42.7052 49.7407 42.7687 49.6219 42.8619 49.5286C42.9552 49.4354 43.074 49.3719 43.2033 49.3462C43.3326 49.3205 43.4666 49.3337 43.5885 49.3841C43.7103 49.4346 43.8144 49.52 43.8876 49.6297C43.9609 49.7393 44 49.8682 44 50C44 50.1769 43.9298 50.3464 43.8047 50.4714C43.6797 50.5965 43.5101 50.6667 43.3333 50.6667ZM46 50.6667C45.8681 50.6667 45.7393 50.6276 45.6296 50.5544C45.52 50.4811 45.4345 50.377 45.3841 50.2552C45.3336 50.1333 45.3204 49.9993 45.3461 49.87C45.3719 49.7407 45.4354 49.6219 45.5286 49.5286C45.6218 49.4354 45.7406 49.3719 45.8699 49.3462C45.9993 49.3205 46.1333 49.3337 46.2551 49.3841C46.3769 49.4346 46.4811 49.52 46.5543 49.6297C46.6276 49.7393 46.6667 49.8682 46.6667 50C46.6667 50.1769 46.5964 50.3464 46.4714 50.4714C46.3464 50.5965 46.1768 50.6667 46 50.6667Z" fill="#28282E"/>
</g>
<defs>
<clipPath id="clip0_75_4302">
<rect width="32" height="32" fill="white" transform="translate(24 24)"/>
</clipPath>
</defs>
</svg>
