<svg width="80" height="80" viewBox="0 0 80 80" fill="none" xmlns="http://www.w3.org/2000/svg">
<path d="M72 40C72 57.6731 57.6731 72 40 72C22.3269 72 8 57.6731 8 40C8 22.3269 22.3269 8 40 8C57.6731 8 72 22.3269 72 40ZM11.4191 40C11.4191 55.7848 24.2152 68.5809 40 68.5809C55.7848 68.5809 68.5809 55.7848 68.5809 40C68.5809 24.2152 55.7848 11.4191 40 11.4191C24.2152 11.4191 11.4191 24.2152 11.4191 40Z" fill="#28282E"/>
<path d="M52.0002 26.6667H28.0002C27.2929 26.6667 26.6146 26.9476 26.1145 27.4477C25.6144 27.9478 25.3335 28.6261 25.3335 29.3333V45.3333C25.3335 46.0406 25.6144 46.7189 26.1145 47.219C26.6146 47.7191 27.2929 48 28.0002 48H37.3335V50.6667H34.6668V53.3333H45.3335V50.6667H42.6668V48H52.0002C52.7074 48 53.3857 47.7191 53.8858 47.219C54.3859 46.7189 54.6668 46.0406 54.6668 45.3333V29.3333C54.6668 28.6261 54.3859 27.9478 53.8858 27.4477C53.3857 26.9476 52.7074 26.6667 52.0002 26.6667ZM52.0002 45.3333H28.0002V29.3333H52.0002V45.3333Z" fill="#28282E"/>
<path d="M32 33.3333V41.3333C32 41.687 32.1405 42.0261 32.3905 42.2761C32.6406 42.5262 32.9797 42.6667 33.3333 42.6667H46.6667C47.0203 42.6667 47.3594 42.5262 47.6095 42.2761C47.8595 42.0261 48 41.687 48 41.3333V33.3333C48 32.9797 47.8595 32.6406 47.6095 32.3905C47.3594 32.1405 47.0203 32 46.6667 32H33.3333C32.9797 32 32.6406 32.1405 32.3905 32.3905C32.1405 32.6406 32 32.9797 32 33.3333ZM46.6667 41.3333H33.3333V34.6667H46.6667V41.3333Z" fill="#28282E"/>
</svg>
