<svg width="80" height="80" viewBox="0 0 80 80" fill="none" xmlns="http://www.w3.org/2000/svg">
<path d="M72 40C72 57.6731 57.6731 72 40 72C22.3269 72 8 57.6731 8 40C8 22.3269 22.3269 8 40 8C57.6731 8 72 22.3269 72 40ZM11.4191 40C11.4191 55.7848 24.2152 68.5809 40 68.5809C55.7848 68.5809 68.5809 55.7848 68.5809 40C68.5809 24.2152 55.7848 11.4191 40 11.4191C24.2152 11.4191 11.4191 24.2152 11.4191 40Z" fill="#28282E"/>
<path d="M52 38.6666C52 46.0666 46.88 52.9866 40 54.6666C33.12 52.9866 28 46.0666 28 38.6666V30.6666L40 25.3333L52 30.6666V38.6666ZM40 52C45 50.6666 49.3333 44.72 49.3333 38.96V32.4L40 28.24L30.6667 32.4V38.96C30.6667 44.72 35 50.6666 40 52ZM43.7333 38.6666V36.6666C43.7333 34.8 41.8667 33.3333 40 33.3333C38.1333 33.3333 36.2667 34.8 36.2667 36.6666V38.6666C35.4667 38.6666 34.6667 39.4666 34.6667 40.2666V44.9333C34.6667 45.8666 35.4667 46.6666 36.2667 46.6666H43.6C44.5333 46.6666 45.3333 45.8666 45.3333 45.0666V40.4C45.3333 39.4666 44.5333 38.6666 43.7333 38.6666ZM42 38.6666H38V36.6666C38 35.6 38.9333 34.9333 40 34.9333C41.0667 34.9333 42 35.6 42 36.6666V38.6666Z" fill="#28282E"/>
</svg>
